<svg id="Calque_1" data-name="Calque 1" xmlns="http://www.w3.org/2000/svg" viewBox="0 0 559.64 231.51"><path d="M23.77,83.8l37.64,64.88s120.42-31.46,215.68,67.79C277.09,216.47,223.06,86.72,23.77,83.8Z" transform="translate(0.21 -3.44)" style="fill:#fff"/><path d="M82.54,3.44l15,68.68S214,78.5,270.64,194.31C270.64,194.31,259.54,63.07,82.54,3.44Z" transform="translate(0.21 -3.44)" style="fill:#fff"/><path d="M279.61,227.11c-15.94-16-108-96.49-279.82-41.73L56.09,235s102.49-66.95,223-5.74l.48.24.58-.29C400.69,168,503.13,235,503.13,235l56.3-49.57C387.56,130.62,295.55,211.13,279.61,227.11Z" transform="translate(0.21 -3.44)" style="fill:#fff"/><path d="M535.45,83.8l-37.64,64.88s-120.42-31.46-215.68,67.79C282.13,216.47,336.16,86.72,535.45,83.8Z" transform="translate(0.21 -3.44)" style="fill:#fff"/><path d="M476.68,3.44l-15,68.68S345.2,78.5,288.58,194.31C288.58,194.31,299.68,63.07,476.68,3.44Z" transform="translate(0.21 -3.44)" style="fill:#fff"/></svg>